/* XPM */
static char *result[] = {
/* columns rows colors chars-per-pixel */
"50 50 131 2 ",
"   c #000202",
".  c #010303",
"X  c #060707",
"o  c #060808",
"O  c #0A0B0B",
"+  c #0A0C0C",
"@  c #0B0D0D",
"#  c #0D0F0F",
"$  c #0E1010",
"%  c #0F1111",
"&  c #101212",
"*  c #111313",
"=  c #171818",
"-  c #1A1C1C",
";  c gray11",
":  c #1E1E1E",
">  c #202020",
",  c #232424",
"<  c #282A2A",
"1  c #292B2B",
"2  c #2A2C2C",
"3  c #2B2D2D",
"4  c gray18",
"5  c #2F3030",
"6  c #303131",
"7  c #313232",
"8  c #353636",
"9  c #383939",
"0  c gray23",
"q  c #3F3F3F",
"w  c #424343",
"e  c #434444",
"r  c #444545",
"t  c #454646",
"y  c #464747",
"u  c #474848",
"i  c #484949",
"p  c #525353",
"a  c #535454",
"s  c #545555",
"d  c #555656",
"f  c #565656",
"g  c #565757",
"h  c #575858",
"j  c gray35",
"k  c #5F5F5F",
"l  c #636464",
"z  c #646565",
"x  c #6F7070",
"c  c #707171",
"v  c #717272",
"b  c #727373",
"n  c gray46",
"m  c #767676",
"M  c #838383",
"N  c #848484",
"B  c gray52",
"V  c #858686",
"C  c #888989",
"Z  c #898A8A",
"A  c #8E8E8E",
"S  c #909090",
"D  c #929292",
"F  c #979797",
"G  c #989898",
"H  c gray60",
"J  c #9B9C9C",
"K  c gray61",
"L  c #9C9D9D",
"P  c gray62",
"I  c #A0A0A0",
"U  c gray64",
"Y  c #A3A4A4",
"T  c #A4A5A5",
"R  c #A5A5A5",
"E  c #A5A6A6",
"W  c gray65",
"Q  c #A7A7A7",
"!  c #A9A9A9",
"~  c #A9AAAA",
"^  c #AAABAB",
"/  c #ABACAC",
"(  c #ACADAD",
")  c #B1B2B2",
"_  c #B2B3B3",
"`  c gray72",
"'  c #B8B9B9",
"]  c #B9BABA",
"[  c gray73",
"{  c gray74",
"}  c #C0C0C0",
"|  c #C0C1C1",
" . c #C1C1C1",
".. c #C1C2C2",
"X. c #C3C3C3",
"o. c #C5C5C5",
"O. c #C6C6C6",
"+. c #C8C8C8",
"@. c #CDCECE",
"#. c #CECFCF",
"$. c gray81",
"%. c gray82",
"&. c #D1D2D2",
"*. c #D2D3D3",
"=. c gray83",
"-. c #D4D5D5",
";. c gray85",
":. c #DADADA",
">. c #DDDDDD",
",. c gray87",
"<. c gray88",
"1. c #E1E1E1",
"2. c #E2E2E2",
"3. c gray90",
"4. c #E9E9E9",
"5. c #EAEAEA",
"6. c #ECECEC",
"7. c gray93",
"8. c gray94",
"9. c gray95",
"0. c #F3F3F3",
"q. c #F4F4F4",
"w. c gray96",
"e. c #F6F6F6",
"r. c gray97",
"t. c #F8F8F8",
"y. c gray98",
"u. c #FBFBFB",
"i. c #FDFDFD",
"p. c #FEFEFE",
"a. c white",
/* pixels */
"a.a.a.a.a.a.a.a.a.a.a.a.a.a.a.a.a.a.a.a.a.a.0.;.| | ;.0.a.a.a.a.a.a.a.a.a.a.a.a.a.a.a.a.a.a.a.a.a.a.",
"a.a.a.a.a.a.a.a.a.a.a.a.a.a.a.a.a.e.) l 3 $ . . . . . . $ 3 l ) e.a.a.a.a.a.a.a.a.a.a.a.a.a.a.a.a.a.",
"a.a.a.a.a.a.a.a.a.a.a.a.a.a.i.( p @ . . . . . . . . . . . . . . @ p ( i.a.a.a.a.a.a.a.a.a.a.a.a.a.a.",
"a.a.a.a.a.a.a.a.a.a.a.a.p.' 6 . . . . . . . . . . . . . . . . . . . . 6 ] a.a.a.a.a.a.a.a.a.a.a.a.a.",
"a.a.a.a.a.a.a.a.a.a.a.&.t . . . . . . . . . . . . . . . . . . . . . . . . t *.a.a.a.a.a.a.a.a.a.a.a.",
"a.a.a.a.a.a.a.a.a.a.J o . . . . . . . . . . . . . . . . . . . . . . . . . . o L a.a.a.a.a.a.a.a.a.a.",
"a.a.a.a.a.a.a.a.u.c . . . . . . . . . . . . . . . . . . . . . . . . . . . . . . v u.a.a.a.a.a.a.a.a.",
"a.a.a.a.a.a.a.0.i . . . . . . . . . . . . . & 2 e w 1 & . . . . . . . . . . . . . i 0.a.a.a.a.a.a.a.",
"a.a.a.a.a.a.u.u . . . . . . . . . . # h E 7.a.a.a.a.a.a.7.E h # . . . . . . . . . . i u.a.a.a.a.a.a.",
"a.a.a.a.a.a.c . . . . . . . . . & Z e.a.a.a.a.a.a.a.a.a.a.a.a.e.Z & . . . . . . . . . v a.a.a.a.a.a.",
"a.a.a.a.a.J . . . . . . . . . c 7.a.a.a.a.a.a.a.a.a.a.a.a.a.a.a.a.6.x . . . . . . . . . L a.a.a.a.a.",
"a.a.a.a.&.o . . . . . . . + / a.a.a.a.a.a.a.a.a.a.a.a.a.a.a.a.a.a.a.a.^ + . . . . . . . o *.a.a.a.a.",
"a.a.a.p.r . . . . . . . - @.a.a.a.a.a.a.a.a.a.a.a.a.a.a.a.a.a.a.a.a.a.a.@.- . . . . . . . y a.a.a.a.",
"a.a.a.' . . . . . . . + #.a.a.a.a.a.a.a.p.3.} F n M I { 8.a.a.a.a.a.a.a.a.@.+ . . . . . . . ] a.a.a.",
"a.a.i.6 . . . . . . . ^ a.a.a.a.a.a.a.>.f               = V 3.a.a.a.a.a.a.a.^ . . . . . . . 7 i.a.a.",
"a.a.( . . . . . . . c a.a.a.a.a.a.a.o.:                     , 1.a.a.a.a.a.a.a.x . . . . . . . ( a.a.",
"a.a.p . . . . . . * 7.a.a.a.a.a.a.[                           H a.a.a.a.a.a.a.6.& . . . . . . a a.a.",
"a.w.+ . . . . . . Z a.a.a.a.a.a.9.:                           ! a.a.a.a.a.a.a.a.C . . . . . . @ e.a.",
"a.) . . . . . . # e.a.a.a.a.a.a.R                           X 4.a.a.a.a.a.a.a.a.e.# . . . . . . _ a.",
"a.l . . . . . . g a.a.a.a.a.a.y.8               q 0         B a.a.a.a.a.a.a.a.a.a.d . . . . . . l a.",
"a.3 . . . . . . T a.a.a.a.a.a.+.            O >.a.a.4.P x K r.a.a.a.a.a.a.a.a.a.a.Y . . . . . . 3 a.",
"a.$ . . . . . . 6.a.a.a.a.a.a.W             H a.a.a.a.a.a.a.a.a.a.a.a.a.a.a.a.a.a.6.. . . . . . % a.",
"9.. . . . . . % a.a.a.a.a.a.a.A             %.a.a.a.a.a.a.a.a.a.a.a.a.a.a.a.a.a.a.a.$ . . . . . . 0.",
";.. . . . . . 1 a.a.a.a.a.a.a.b             2.a.a.a.a.a.a.a.a.a.a.a.a.a.a.a.a.a.a.a.< . . . . . . :.",
"... . . . . . e a.a.a.a.a.a.a.s             9.a.a.a.a.a.a.a.a.a.a.a.a.a.a.a.a.a.a.a.w . . . . . . ..",
"... . . . . . e a.a.a.a.a.a.a.s             9.a.a.a.a.a.a.a.a.a.a.a.a.a.a.a.a.a.a.a.w . . . . . . ..",
";.. . . . . . 1 a.a.a.a.a.a.a.b             2.a.a.a.a.a.a.a.a.a.a.a.a.a.a.a.a.a.a.a.< . . . . . . :.",
"9.. . . . . . % a.a.a.a.a.a.a.A             $.a.a.a.a.a.a.a.a.a.a.a.a.a.a.a.a.a.a.a.$ . . . . . . 0.",
"a.$ . . . . . . 6.a.a.a.a.a.a.Q             S a.a.a.a.a.a.p.a.a.a.a.a.a.a.a.a.a.a.6.. . . . . . % a.",
"a.3 . . . . . . T a.a.a.a.a.a.O.              -.a.a.,.N 4 9  .a.a.a.a.a.a.a.a.a.a.Y . . . . . . 3 a.",
"a.l . . . . . . g a.a.a.a.a.a.t.5               9 4         = 5.a.a.a.a.a.a.a.a.a.d . . . . . . l a.",
"a.) . . . . . . # e.a.a.a.a.a.a.U                             P a.a.a.a.a.a.a.a.e.# . . . . . . _ a.",
"a.e.@ . . . . . . Z a.a.a.a.a.a.9.>                           s a.a.a.a.a.a.a.a.C . . . . . . @ e.a.",
"a.a.p . . . . . . * 7.a.a.a.a.a.a.`                           k a.a.a.a.a.a.a.6.& . . . . . . a a.a.",
"a.a.( . . . . . . . c a.a.a.a.a.a.a.X.:                     ; =.a.a.a.a.a.a.a.x . . . . . . . ( a.a.",
"a.a.i.6 . . . . . . . ^ a.a.a.a.a.a.a.<.j               : D 5.a.a.a.a.a.a.a.~ . . . . . . . 7 i.a.a.",
"a.a.a.' . . . . . . . + @.a.a.a.a.a.a.a.p.3.| G m V R X.0.a.a.a.a.a.a.a.a.@.+ . . . . . . . ] a.a.a.",
"a.a.a.p.t . . . . . . . - @.a.a.a.a.a.a.a.a.a.a.a.a.a.a.a.a.a.a.a.a.a.a.@.- . . . . . . . y a.a.a.a.",
"a.a.a.a.*.o . . . . . . . + ^ a.a.a.a.a.a.a.a.a.a.a.a.a.a.a.a.a.a.a.a.^ + . . . . . . . o *.a.a.a.a.",
"a.a.a.a.a.L . . . . . . . . . x 6.a.a.a.a.a.a.a.a.a.a.a.a.a.a.a.a.6.x . . . . . . . . . L a.a.a.a.a.",
"a.a.a.a.a.a.c . . . . . . . . . & C e.a.a.a.a.a.a.a.a.a.a.a.a.e.C & . . . . . . . . . v a.a.a.a.a.a.",
"a.a.a.a.a.a.u.i . . . . . . . . . . # d Y 6.a.a.a.a.a.a.6.Y d # . . . . . . . . . . i u.a.a.a.a.a.a.",
"a.a.a.a.a.a.a.0.i . . . . . . . . . . . . . $ < w w < $ . . . . . . . . . . . . . i 0.a.a.a.a.a.a.a.",
"a.a.a.a.a.a.a.a.u.v . . . . . . . . . . . . . . . . . . . . . . . . . . . . . . b u.a.a.a.a.a.a.a.a.",
"a.a.a.a.a.a.a.a.a.a.L o . . . . . . . . . . . . . . . . . . . . . . . . . . o L a.a.a.a.a.a.a.a.a.a.",
"a.a.a.a.a.a.a.a.a.a.a.*.t . . . . . . . . . . . . . . . . . . . . . . . . y *.a.a.a.a.a.a.a.a.a.a.a.",
"a.a.a.a.a.a.a.a.a.a.a.a.a.] 6 . . . . . . . . . . . . . . . . . . . . 7 ] a.a.a.a.a.a.a.a.a.a.a.a.a.",
"a.a.a.a.a.a.a.a.a.a.a.a.a.a.i.( a @ . . . . . . . . . . . . . . @ a ( i.a.a.a.a.a.a.a.a.a.a.a.a.a.a.",
"a.a.a.a.a.a.a.a.a.a.a.a.a.a.a.a.a.e._ l 3 % . . . . . . % 3 z _ e.a.a.a.a.a.a.a.a.a.a.a.a.a.a.a.a.a.",
"a.a.a.a.a.a.a.a.a.a.a.a.a.a.a.a.a.a.a.a.a.a.0.:.....:.q.a.a.a.a.a.a.a.a.a.a.a.a.a.a.a.a.a.a.a.a.a.a."
};
