/* XPM */
static char *result[] = {
/* columns rows colors chars-per-pixel */
"32 32 4 1 ",
"  c #FFCD73",
". c #FFD573",
"X c #FFDE7B",
"o c #FFE683",
/* pixels */
"oooooooo ..XXooo ..XXooo ..XXXoo",
"ooooooo  ..XXoo  ..XXooo.  ..XXo",
"oooooo  ...XXoo ...XXo     ..XXo",
"oooooo ...XXXo  ..    .....  .Xo",
"ooooo              ......... ..X",
"ooooo   ...............XXXXX ..X",
"ooo   ..............XXXXXXXX  .X",
"     ....XXXXXXXXXXXXXXXoooo   .",
".... ..XXXXXXXXXXXXXXooooooo .  ",
"... ...XXXoooooooooooooooooo ...",
"XXX ..XXXooooo      .Xoooooo ...",
"XXX ..XXoooo   .... ..Xooooo ..X",
"ooo ..XXoooo ....... .XXoooo ..X",
"ooo ..XXooo  ...XXXX ..Xoooo ..X",
"oo  ..XXooo ...XXXXX ..XXooo ..X",
"    ..XXooo ..XXXooo ..XXooo ..X",
"... ..XXooo. .XXoooo ..XXooo    ",
"... ..XXoooX ..Xoooo ..XXooo ...",
"XXX ..XXoooo ..XXoo  ..XXooo ...",
"XXX ..XXoooo        ...XXooo ..X",
"ooo  .XXoooo..........XXXooo ..X",
"ooo. ..XooooX........XXXoooo ..X",
"oooX  .XXooooXXXXXXXXXXoooo  ..X",
"oooo. ..XoooooXXXXXXXXooooo ...X",
"       .XXoooooooooooooooo      ",
"....   ..Xooooooooooooooo   ....",
"......   .Xoooooooooooo   ......",
"XXXXX.      .X           ....XXX",
"XXXXXX. ...      ...... ...XXXXX",
"ooooooX ....... ....... ..XXXXoo",
"ooooooo ..XX... ..XXXXX ..XXoooo",
"ooooooo ..XXXXX ..XXXXX ..XXoooo"
};
