/* XPM */
static char *result[] = {
/* columns rows colors chars-per-pixel */
"32 32 4 1 ",
"  c black",
". c #160D00",
"X c #613A00",
"o c #97794D",
/* pixels */
"                                ",
" ...........XXXXXX...XXXXXX.... ",
" ..XXXXXXX...XXXXXXXXXXXXXXXX.. ",
" .XXX.XXXXX.  ...XXXXXXXXXXXXXX ",
"   .......  .XXXXXXXX......XXXX ",
"    ....X.XXXXXXXXXXXXXXXXX.... ",
" oooooooooooooooooooooooooooooo ",
" XXXXo.........XXXXXXXXXXoXXXXX ",
" XXXXo....XXXXXXXX.XXXXXXoXXXXX ",
" XXXXoXXXXXXXXXXXXXXXXXXXoX.XXX ",
" XXXXoXXXXXXXX...XXXXXXXXoX.XXX ",
" XXXXo.....XXXXXXXXXX....oXXXXX ",
" X.XXo.XXXXXXXXXXXXXXXXXXoXXXX. ",
" X.XXoooooooooooooooooooooXXXX  ",
" X.XXo.........XXXXXXXXXXoXXXX. ",
" X XXo....XXXXXXXX.XXXXXXo.X.X. ",
" . .XoX.XXXXXXXXXXXXXXXXXo.XXXX ",
" .. XoXXXXXXXXXXXXXXX....o XXXX ",
" .X Xo.....XXXXXXXXXXXXXXo.XXXX ",
" XX..ooooooooooooooooooooo.XXXX ",
" XX.Xo..... ..XXXXXXXXXXXo..XXX ",
" XX..o ..XXXXXXXXX.XXXXXXo..XXX ",
" XX..oXXXXXXX.XXXXXXXXXXXo. XXX ",
" X...oXXXXXXXXXXXXXXXXXXXo .XXX ",
" XX..oXXXXXXXXXXXXXXX....o  XXX ",
" XX. oXXXXXXX.. .XXXXXXXXo  XXX ",
" oooooooooooooooooooooooooooooo ",
"      ..... ..XXXXXXXXXXXXX.... ",
"     . ..XXXXXXXXX.XXXXXXXXXXXX ",
" .XXXXXXXXXXX.XXXXXXXXXXXXXXX.. ",
"  XXXXXXXXXXXXXXXXXXX......XXXX ",
"                                "
};
