/* XPM */
static char *result[] = {
/* columns rows colors chars-per-pixel */
"50 50 4 1 ",
"  c #010303",
". c #808181",
"X c #8F9191",
"o c white",
/* pixels */
"            .oooooooooooo            .oooooooooooo",
"            .oooooooooooo            .oooooooooooo",
"            .oooooooooooo            .oooooooooooo",
"            .oooooooooooo            .oooooooooooo",
"            .oooooooooooo            .oooooooooooo",
"            .oooooooooooo            .oooooooooooo",
"            .oooooooooooo            .oooooooooooo",
"            .oooooooooooo            .oooooooooooo",
"            .oooooooooooo            .oooooooooooo",
"            .oooooooooooo            .oooooooooooo",
"            .oooooooooooo            .oooooooooooo",
"            .oooooooooooo            .oooooooooooo",
"............X........................X............",
"oooooooooooo.            oooooooooooo.            ",
"oooooooooooo.            oooooooooooo.            ",
"oooooooooooo.            oooooooooooo.            ",
"oooooooooooo.            oooooooooooo.            ",
"oooooooooooo.            oooooooooooo.            ",
"oooooooooooo.            oooooooooooo.            ",
"oooooooooooo.            oooooooooooo.            ",
"oooooooooooo.            oooooooooooo.            ",
"oooooooooooo.            oooooooooooo.            ",
"oooooooooooo.            oooooooooooo.            ",
"oooooooooooo.            oooooooooooo.            ",
"oooooooooooo.            oooooooooooo.            ",
"            .oooooooooooo            .oooooooooooo",
"            .oooooooooooo            .oooooooooooo",
"            .oooooooooooo            .oooooooooooo",
"            .oooooooooooo            .oooooooooooo",
"            .oooooooooooo            .oooooooooooo",
"            .oooooooooooo            .oooooooooooo",
"            .oooooooooooo            .oooooooooooo",
"            .oooooooooooo            .oooooooooooo",
"            .oooooooooooo            .oooooooooooo",
"            .oooooooooooo            .oooooooooooo",
"            .oooooooooooo            .oooooooooooo",
"            .oooooooooooo            .oooooooooooo",
"............X........................X............",
"oooooooooooo.            oooooooooooo.            ",
"oooooooooooo.            oooooooooooo.            ",
"oooooooooooo.            oooooooooooo.            ",
"oooooooooooo.            oooooooooooo.            ",
"oooooooooooo.            oooooooooooo.            ",
"oooooooooooo.            oooooooooooo.            ",
"oooooooooooo.            oooooooooooo.            ",
"oooooooooooo.            oooooooooooo.            ",
"oooooooooooo.            oooooooooooo.            ",
"oooooooooooo.            oooooooooooo.            ",
"oooooooooooo.            oooooooooooo.            ",
"oooooooooooo.            oooooooooooo.            "
};
