/* XPM */
static char *result[] = {
/* columns rows colors chars-per-pixel */
"32 32 13 1 ",
"  c #4A2918",
". c #005218",
"X c #007B31",
"o c #A07018",
"O c #5ACD73",
"+ c #BDA441",
"@ c #DE9462",
"# c #E8C840",
"$ c #EFD074",
"% c #7BD5FE",
"& c #F6D5A4",
"* c #FEFEFE",
"= c None",
/* pixels */
"========..XXXXOOOOOOXX..  ##  ==",
"========..XXXXOOOOOOXX..  ##  ==",
"========..........OOOO..##  ====",
"========..........OOOO..##  ====",
"======..XXXXXXXXOOOOOOXX  ======",
"======..XXXXXXXXOOOOOOXX  ======",
"======..XXoo##oooo####OO..======",
"======..XXoo##oooo####OO..======",
"======..XX    @@oo    OO..======",
"======..XX    @@oo    OO..======",
"========  **..&&&&..**  ========",
"========  **..&&&&..**  ========",
"==========  @@&&&&@@  ==========",
"==========  @@&&&&@@  ==========",
"========..oo  @@@@  oo..========",
"========..oo  @@@@  oo..========",
"======..OOoo##XXXX##ooOO..======",
"======..OOoo##XXXX##ooOO..======",
"======..XX..##OOOO##..XX..======",
"======..XX..##OOOO##..XX..======",
"====  @@....ooOOOOoo....@@  ====",
"====  @@....ooOOOOoo....@@  ====",
"==  &&@@  %%..XXXX..%%  @@&&  ==",
"==  &&@@  %%..XXXX..%%  @@&&  ==",
"==  &&&&@@  oo####oo  @@&&&&  ==",
"==  &&&&@@  oo####oo  @@&&&&  ==",
"====    ==  ########  ==    ====",
"====    ==  ########  ==    ====",
"==========  ##oooo##  ==========",
"==========  ##oooo##  ==========",
"========  $$++    ++$$  ========",
"========  $$++    ++$$  ========"
};
