/* XPM */
static char *result[] = {
/* columns rows colors chars-per-pixel */
"50 50 208 2 ",
"   c gray1",
".  c #040404",
"X  c gray2",
"o  c #060606",
"O  c #070707",
"+  c gray3",
"@  c #090909",
"#  c gray4",
"$  c #0B0B0B",
"%  c #0C0C0C",
"&  c gray5",
"*  c #0E0E0E",
"=  c gray6",
"-  c #11130B",
";  c #11120C",
":  c #101010",
">  c #111111",
",  c gray7",
"<  c #131313",
"1  c #141412",
"2  c gray8",
"3  c #151515",
"4  c #161616",
"5  c gray9",
"6  c #191A17",
"7  c #181818",
"8  c #191919",
"9  c gray10",
"0  c #1B1B1B",
"q  c gray11",
"w  c #1D1D1D",
"e  c #1E1E1E",
"r  c gray12",
"t  c #21221F",
"y  c #22231F",
"u  c #252A1C",
"i  c #373E1B",
"p  c #202020",
"a  c gray13",
"s  c #222222",
"d  c #232323",
"f  c #252720",
"g  c #252723",
"h  c gray14",
"j  c #252525",
"k  c gray15",
"l  c #272727",
"z  c #262821",
"x  c #2B2E27",
"c  c gray16",
"v  c #2A2A2A",
"b  c #2D2D2D",
"n  c gray18",
"m  c #2F2F2F",
"M  c #2E3229",
"N  c #2E302C",
"B  c #363B2C",
"V  c #3A3F2F",
"C  c gray19",
"Z  c #313131",
"A  c #323232",
"S  c gray20",
"D  c #353535",
"F  c #373737",
"G  c gray22",
"H  c gray23",
"J  c #3C3C3C",
"K  c #3D4331",
"L  c #526213",
"P  c #526121",
"I  c #576B2B",
"U  c #55603F",
"Y  c #677432",
"T  c gray25",
"R  c #414141",
"E  c gray26",
"W  c #434343",
"Q  c #444444",
"!  c gray27",
"~  c #464646",
"^  c #484848",
"/  c gray29",
"(  c #4B4B4B",
")  c #4C4C4C",
"_  c gray30",
"`  c #505050",
"'  c gray32",
"]  c #565656",
"[  c gray34",
"{  c #585858",
"}  c #595A59",
"|  c #5A5A5A",
" . c #5B5B5B",
".. c gray36",
"X. c #5D5D5D",
"o. c #647247",
"O. c gray39",
"+. c #656565",
"@. c #6A6A6A",
"#. c gray42",
"$. c #6C6C6C",
"%. c #6D6D6D",
"&. c gray43",
"*. c gray44",
"=. c #747474",
"-. c gray46",
";. c #767676",
":. c #777777",
">. c gray47",
",. c gray48",
"<. c #7E7E7E",
"1. c gray50",
"2. c #8EB121",
"3. c #9AC736",
"4. c #849A58",
"5. c #82876D",
"6. c #97B064",
"7. c #B4D258",
"8. c #A5C16D",
"9. c #BBE264",
"0. c #808080",
"q. c gray51",
"w. c #848484",
"e. c gray52",
"r. c gray53",
"t. c #8A8E82",
"y. c #898989",
"u. c gray54",
"i. c #8B8B8B",
"p. c #8E8E8E",
"a. c #909090",
"s. c #919190",
"d. c gray57",
"f. c #929292",
"g. c #939393",
"h. c gray59",
"j. c #979797",
"k. c #989898",
"l. c #9A9A9A",
"z. c #9B9B9B",
"x. c gray61",
"c. c #9D9D9D",
"v. c gray62",
"b. c #9F9F9F",
"n. c gray63",
"m. c gray64",
"M. c #A4A4A4",
"N. c #A5A5A5",
"B. c gray65",
"V. c #A7A7A7",
"C. c #A9A9A9",
"Z. c #AAAAAA",
"A. c #ACACAC",
"S. c gray68",
"D. c gray69",
"F. c #B2B2B2",
"G. c #B7B7B7",
"H. c gray72",
"J. c gray73",
"K. c #BBBBBB",
"L. c gray74",
"P. c #C0C6B4",
"I. c #DDF1B2",
"U. c #E2EEBF",
"Y. c #C3C3C3",
"T. c gray77",
"R. c #C5C5C5",
"E. c #C6C6C6",
"W. c gray78",
"Q. c #C8C8C8",
"!. c #CACACA",
"~. c #CBCBCB",
"^. c gray80",
"/. c #CDCDCD",
"(. c #CECECE",
"). c #D0D0D0",
"_. c LightGray",
"`. c gray83",
"'. c gray84",
"]. c #D7D7D7",
"[. c #D8D8D8",
"{. c #DADADA",
"}. c gray86",
"|. c #DDDDDD",
" X c #DFDFDF",
".X c gray88",
"XX c #E1E1E1",
"oX c gray90",
"OX c #E9E9E9",
"+X c #EAEAEA",
"@X c gray92",
"#X c #EFEFEF",
"$X c gray94",
"%X c #F1F1F1",
"&X c gray95",
"*X c #F3F3F3",
"=X c #F4F4F4",
"-X c gray96",
";X c #F6F6F6",
":X c gray97",
">X c #F8F8F8",
",X c #F9F9F9",
"<X c gray98",
"1X c #FBFBFB",
"2X c gray99",
"3X c #FDFDFD",
"4X c #FEFEFE",
"5X c white",
/* pixels */
"5X5X5X5X5X5X5X5X5X5X5X5X5X5X5X5X5X5X5X5X5X5X5X5X5X5X5X5X5X5X5X5X5X5X5X5X5X5X5X5X5X5X5X5X5X5X5X5X5X5X",
"5X5X5X5X5X5X5X5X5X5X5X5X5X5X5X5X5X5X5X5X5X5X5X5X5X5X5X5X5X5X5X5X5X5X5X5X5X5X5X5X5X5X5X5X5X5X5X5X5X5X",
"5X5X5X5X5X5X5X5X5X5X5X5X5X5X5X5X5X5X5X5X5X5X5X5X5X5X5X5X5X5X5X5X5X5X5X5X5X5X5X5X5X5X5X5X5X5X5X5X5X5X",
"5X5X5X5X5X5X5X5X5X5X5X5X5X5X5X5X5X5X5X5X5X5X5X5X5X5X5X5X5X5X5XA. .@.{.5X5X5X5X5X5X,.) 0.5X5X5X5X5X5X",
"5X5X5X5X5X5X5X5X5X5X5X5X5X5X5X5X5X5X5X5X5X5X5X5X5X5X5X5X5X5XS.! 9 a ..|.5X5X5X5X5XW # b <.5X5X5X5X5X",
"5X5X5X5X5X5X5X5X5X5X5X5X5X5X5X5X5X5X5X5X5X5X5X5X5X5X5X5X5X5X=.4 w 0 > R.5X5X5X5Xn.Z 3 9 h 5X5X5X5X5X",
"5X5X5X5X5X5X5X5X5X5X5X5X5X5X5X5X5X5X5X5X5X5X5X5X5X5X5X5X5X5X$.= w q % c.@X3X5X5Xh 0 e 8 8 ).-X5X5X5X",
"5X5X5X5X5X5X5X5X5X5X5X5X5X5X5X5X5X5X5X5X5X5X5X5X5X5X5X5X5X5X$.= w r w 0 M.;X5X5X* 7 p r w A ).5X5X5X",
"5X5X5X5X5X5X5X5X5X5X5X5X5X5X5X5X5X5X5X5X5X5X5X5X5X5X5X5X5X5X$.= w p p w 0 0 0 0 q r p p w 8 !.5X5X5X",
"5X5X5X5X5X5X5X5X5X5X5X5X5X5X5X5X5X5X5X5X5X5X5X5X5X5X5X5XOXi.n 0 r p p p 9 5 4 4 r p p p w 8 !.5X5X5X",
"5X5X5X5X5X5X5X5X5X5X5X5X5X5X5X5X5X5X5X5X5X5X5X5X5X5X5X5X.X| < p p p p p p p p p p p p p e 0 ;.(.5X5X",
"5X5X5X5X5X5X5X5X5X5X5X5X5X5X5X5X5X5X5X5X5X5X5X5X5X5X5X$XH.~ 4 p p p p p p p p p p p p p p w 0 l.5X5X",
"5X5X5X5X5X5X5X5X5X5X5X5X5X5X5X5X5X5X5X5X5X5X5X5X5X5X2XL.E 3 p p p p p p p p p p p p p p p w 0 l.5X5X",
"5X5X5X5X5X5X5X5X5X5X5X5X5X5X5X5X5X5X5X5X5X5X5X5X5X5XS.v 7 p p p p p r e r p p p p p r e e w q g.:X5X",
"5X5X5X5X3X=X%X%X%X%X%X3X5X5X5X5X5X5X5X5X5X5X5X5X5X5XS.v 7 p p p r w 5 ; 6 r p p p p 0 1 - e w D p.5X",
"5X<X;X;XXXd.&.&.&.&.&.oX;X<X5X5X5X5X5X5X5X5X5X5X5X1XB.c 7 p p p 9 l :.Y i y p p p p } 5.L = 9 8 #.,X",
"5X/.x.x.e.Z % % % % % u.x.^.4X5X5X5X5X5X5X5X5X5X5X[.&.h 0 p p p 4 C !.7.P f p p p p s.U.2.  7 0 / H.",
"'.+.O O $ 9 p p p p p # O O._.5X5X5X5X5X5X5X5X5X5Xz.# q p p p p 4 N P.9.I z e 8 8 e t.I.3.  8 e , ^ ",
"^ : p p p p p p p p p p p 2 G (.5X5X5X5X5X5X5X5X5Xz.# q p p p p 7 u 4.8.U g 9 + o 8 o.8.6.@ 0 e , ^ ",
"^ : p p p p p p p p p p p w e A 5X5X5X5X5X5X5X5X5Xz.@ 8 r p p p e t B K x a r 0 9 r M K V 0 r e , ^ ",
"^ : p p p p p p p p p p p p 8 @ @X<X5X5X5X5X5X5X5Xm.8 w e r p p p p p p p p p p p p p p p p e w 8 [ ",
"^ : p p p p p p p p p p p p q 2 1.XX5X5X5X5X5X5X5X).r.#.m 9 p p p p p p p p p p p p p p p e < 4 E C.",
"^ : p p p p p p p p p p p p p r % E.5X5X5X5X5X5X5X'.j.:.A 8 p p p p p p p p p p p p p p r 0 [ *.C.5X",
"^ : p p e 7 w p p p p p p p p r % E.5X5X5X5X*XW.Z.#.$ : 0 p p p p p p p p p p p p p p p e 9 a.|.5X5X",
"=.v 7 7 r F k 7 0 r p p p p p r % E.5X5X5X=XG.X.c h q w r p p p p p p p p p p p p p p p p q A V.5X5X",
"_.=.c c T z.[ c h e p p p p p r % E.5X5X5X}. .j 7 0 p p p p p p p p p p p p p p p p p p p w 0 l.5X5X",
"5X`.Z.Z.G.OXT.Z.%.r w p p p p r % E.5X5X5X).S 3 p p p p p p p p p p p p p p p p p p p p p w 0 l.5X5X",
"5X5X5X5X5X5X5X5X].e.w e p p p r % E.5X5X X{ j q p p p p p p p p p p p p p p p p p p p p p r w _ C.5X",
"5X5X5X5X5X5X5X5X5X^.e q p p p r % E.5X5X!.o 9 p p p p p p p p p p p p p p p p p p p p p p p w 8 &.5X",
"5X5X5X5X5X5X5X5X5X^.e q p p p r % E.2X Xy.= q p p p p p p p p p p p p p p p p p p p p p p r q Q v.5X",
"5X5X5X5X5X5X5X5X5X^.e q p p r 0 F ).>XS.d q r p p p p p p p p p p p p p p p p p p p p p p w q r.+X5X",
"5X5X5X5X5X5X5X5X5X^.e q p p 9 $ ).=X;Xb.O p p p p p p p p p p p p p p p p p p p p p p p p w 0 l.5X5X",
"5X5X5X5X5X5X5X5X5X^.e q p p 7 o 5X5X;Xb.O p p p p p p p p p p p p p p p p p p p p p p p p w 0 l.5X5X",
"5X5X5X5X5X5X5X5X5X^.e q p p 7 o 5X:XN.! 4 p p p p p p p p p p p p p p p p p p p p p p p p w 0 l.5X5X",
"5X5X5X5X5X5X5X5X5X^.e q p p 0 > k.}.-., r p p p p p p w 5 0 p p p p p p p p p p p p p p r > 8 l.5X5X",
"5X5X5X5X5X5X5X5X5X[.` q e p p w 9 L.*.% p p p p p p p 8 & 4 p p p p p p p p p p p p p p s H / D.5X5X",
"5X5X5X5X5X5X5X5X5X2X&Xr 5 p p r % J.*.% p p p p p p p 8 % 3 p p p p p p p p p p p p p p S $X&X,X5X5X",
"5X5X5X5X5X5X5X5X5X5X5Xr 4 p p p w * X % p p p p p p p 8 % 3 p p p p p p p p p p p p p 5 8 5X5X5X5X5X",
"5X5X5X5X5X5X5X5X5X5X5XW.R 3 p p p 8 $ % p p p p p p p 8 % 3 p p p p p p p 4 = e p p 2 o 7 5X5X5X5X5X",
"5X5X5X5X5X5X5X5X5X5X5X5X' < p p p e = % p p p p p p p 8 # # 8 p p p p p 4 > 2 r p 2 / w.a.5X5X5X5X5X",
"5X5X5X5X5X5X5X5X5X5X5X5Xe.D 8 p p e = % p p p p p p p 0 *   , p p p p 8 = 2 r p p + q.5X5X5X5X5X5X5X",
"5X5X5X5X5X5X5X5X5X5X5X5X5Xg.w w w e = % p p p p p p p p q $ , p p p p + < r p p p + q.5X5X5X5X5X5X5X",
"5X5X5X5X5X5X5X5X5X5X5X5X5X5XQ.q 0 0 & % p p p p p p p p q $ , p p r w 0 q e p p p + q.5X5X5X5X5X5X5X",
"5X5X5X5X5X5X5X5X5X5X5X5X5X5X*X~.Y.Q 9 8 e p p p p p p p q $ , p p q * i.( 7 e p p $ >.#X5X5X5X5X5X5X",
"5X5X5X5X5X5X5X5X5X5X5X5X5X5X5X5X<XF.h.+.: e e e e e e e 9 # > e e q 2 ` Z 7 w e e 3 J f.5X5X5X5X5X5X",
"5X5X5X5X5X5X5X5X5X5X5X5X5X5X5X5X5X5X;Xb.. , , , , , , , : o # , , , , . Q Q 7 , , , # ( 5X5X5X5X5X5X",
"5X5X5X5X5X5X5X5X5X5X5X5X5X5X5X5X5X5X,XK.( ( ( ( ( ( ( ( ( ( ( ( ( ( ( ( G.S.] ( ( ( ) 0.5X5X5X5X5X5X",
"5X5X5X5X5X5X5X5X5X5X5X5X5X5X5X5X5X5X5X5X5X5X5X5X5X5X5X5X5X5X5X5X5X5X5X5X5X5X5X5X5X5X5X5X5X5X5X5X5X5X",
"5X5X5X5X5X5X5X5X5X5X5X5X5X5X5X5X5X5X5X5X5X5X5X5X5X5X5X5X5X5X5X5X5X5X5X5X5X5X5X5X5X5X5X5X5X5X5X5X5X5X",
"5X5X5X5X5X5X5X5X5X5X5X5X5X5X5X5X5X5X5X5X5X5X5X5X5X5X5X5X5X5X5X5X5X5X5X5X5X5X5X5X5X5X5X5X5X5X5X5X5X5X"
};
