/* XPM */
static char *result[] = {
/* columns rows colors chars-per-pixel */
"32 32 5 1 ",
"  c #2D423A",
". c #42503A",
"X c #4D5D46",
"o c #517347",
"O c #629343",
/* pixels */
" .OOooOoooO. .OOOO. .oOoOOooooO.",
" .XXXXXXXXX. .oooo. .XXXXXXXXXX.",
"..XXXXXXXXX. .XXXX. .XXXXXXXXXX.",
"..XXXXXXXXX. .XXXX. .XXXXXXXXXX.",
" .XXXXXXXXX. .XXXX...XXXXXXXXXX.",
" .XXXXXXXXX...XXXX. .XXXXXXXXXX.",
" .XXXXXXXXX. ...... .XXXXXXXXXX.",
" .XXXXXXXXX.  ..... .XXXXXXXXXX.",
" ..XXX              .XXXXXXXXX..",
" ..... .OOOOOOOOOOO .XXXXXXXXX..",
"       .XXXXXXXXXXX ........... ",
" .Ooo. .XXXXXXXXXXXX            ",
" .XXX. .XXXXXXXXXXXX. .Oooooooo.",
" .XXX. .XXXXXXXXXXXX. .oooooooo.",
" .XXX. .XXXXXXXXXXXX...XXXXXXXX.",
"..XXX. .XXXXXXXXXXXX. .XXXXXXXX.",
" .XXX...XXXXXXXXXXXX. .XXXXXXXX.",
" .XXX. .XXXXXXXXXXXX. .XXXXXXXX.",
" ..XX. .XXXXXXXXXXXX. .XXXXXXXX.",
"...... .XXXXXXXXXXXX...XXXXXXXX.",
"....... ...........X. .XXXXXXXX.",
"                 .... ..XXXXXX..",
" .OOOoooOooooooOO ... ..........",
" .XXXXXXXXXXXXXXX. ..  .........",
" .XXXXXXXXXXXXXXX.              ",
"..XXXXXXXXXXXXXXX. .OoooooooooO.",
" .XXXXXXXXXXXXXXX...XXXXXXXXXXX.",
" .XXXXXXXXXXXXXXX. .XXXXXXXXXXX.",
" .XXXXXXXXXXXXXXX...XXXXXXXXXXX.",
" ..XXXXXXXXXXXX... ..XXXXXXXXXX.",
"  ................  ............",
"                                "
};
